<svg width="40" height="40" viewBox="0 0 143 119" fill="none" xmlns="http://www.w3.org/2000/svg">
<path d="M142.439 19.0856C142.438 19.075 142.439 19.0647 142.438 19.0541C142.432 18.9737 142.421 18.8953 142.406 18.8179C142.404 18.8026 142.399 18.7879 142.396 18.7728C142.381 18.6994 142.362 18.6279 142.34 18.5575C142.332 18.5333 142.324 18.5097 142.315 18.4857C142.292 18.4193 142.265 18.3542 142.234 18.291C142.226 18.2737 142.219 18.2559 142.211 18.239C142.173 18.165 142.132 18.094 142.086 18.0253C142.068 17.9975 142.048 17.9713 142.028 17.9444C141.999 17.9037 141.968 17.8642 141.936 17.8258C141.91 17.7947 141.883 17.7641 141.856 17.7343C141.824 17.7006 141.79 17.6692 141.757 17.6378C141.704 17.5885 141.649 17.5418 141.592 17.4978C141.562 17.4747 141.531 17.4517 141.5 17.4302C141.461 17.4035 141.422 17.3785 141.381 17.3543C141.345 17.3329 141.308 17.3134 141.27 17.2939C141.24 17.2783 141.212 17.2594 141.181 17.2449C133.856 13.8856 125.463 11.6914 117.547 11.0669C108.499 10.3527 100.131 11.6622 93.3475 14.8521C88.1623 17.2906 83.6693 21.1518 80.6959 25.7241C77.5196 30.6091 76.315 35.9072 77.1774 41.1191C74.3748 43.3461 71.936 45.4602 69.9182 47.3016L69.8887 42.9141C69.8887 42.7677 69.9747 28.1823 77.41 20.7473C78.2563 19.9007 78.2563 18.5289 77.41 17.6823C76.5634 16.8363 75.1916 16.8363 74.345 17.6823C68.1483 23.8793 66.3197 33.7244 65.7802 39.1138C64.5436 37.6855 63.1364 36.1103 61.5251 34.4608C62.9055 29.5129 62.3321 24.2538 59.8302 19.1621C57.453 14.3241 53.5005 10.0047 48.7009 6.99978C42.4235 3.0693 34.3698 0.797207 25.4108 0.428307C17.5737 0.106703 9.08376 1.26654 1.50407 3.69666C1.49238 3.70027 1.48209 3.70611 1.47041 3.71001C1.40113 3.73366 1.33353 3.76064 1.26704 3.79097C1.23977 3.80349 1.21307 3.81628 1.18664 3.82964C1.12599 3.86052 1.06673 3.89418 1.00942 3.93035C0.993006 3.94064 0.975479 3.94982 0.959343 3.96067C0.89007 4.00685 0.824692 4.05832 0.760983 4.11229C0.740674 4.12982 0.7212 4.1479 0.701448 4.16599C0.652483 4.21106 0.605467 4.25807 0.560676 4.30759C0.546488 4.32345 0.531464 4.33847 0.517554 4.35461C0.460522 4.4211 0.407107 4.49121 0.358421 4.56493C0.352301 4.57411 0.347015 4.58413 0.341172 4.59359C0.299442 4.65869 0.261328 4.72685 0.226552 4.79696C0.216537 4.81699 0.207078 4.8373 0.197619 4.8576C0.166182 4.92632 0.137805 4.99726 0.113323 5.07043C0.108593 5.08406 0.103029 5.09742 0.0985779 5.11105C0.0749305 5.18617 0.0546215 5.26323 0.0390421 5.34224C0.0370946 5.35253 0.0365382 5.36255 0.0345908 5.37256C0.0331998 5.37952 0.0306959 5.38592 0.0295831 5.39287C0.0268011 5.40845 0.0270793 5.42403 0.0248536 5.43989C0.0142819 5.51055 0.00704853 5.58094 0.00343187 5.65104C0.00231905 5.67469 0.00092803 5.69806 0.000371621 5.72143C-0.00296684 5.90282 0.0162293 6.08087 0.0562908 6.2528C0.0607421 6.272 0.0663061 6.29092 0.0713138 6.31011C0.0899536 6.3805 0.111654 6.44949 0.137248 6.51737C0.143925 6.53518 0.149768 6.55298 0.156723 6.57079C0.189273 6.65147 0.226274 6.7302 0.268005 6.80615C0.276073 6.82117 0.28581 6.83508 0.294434 6.84983C0.330322 6.91131 0.369271 6.97113 0.411002 7.02872C0.425747 7.0493 0.440492 7.06933 0.456071 7.08936C0.508373 7.15669 0.56318 7.22179 0.623272 7.28272C0.624941 7.28438 0.626054 7.28605 0.627723 7.28772C0.691432 7.35199 0.760427 7.41069 0.831926 7.46689C0.839159 7.47245 0.845001 7.47913 0.852234 7.48469C5.25649 10.839 9.5044 14.7481 13.6129 18.5286C19.4071 23.8604 25.3982 29.3736 32.0991 33.6217C37.5168 37.0565 43.6949 38.8289 49.7606 38.8289C52.7271 38.8289 55.6664 38.4024 58.4762 37.5414C60.7091 39.8299 62.5119 41.9481 64.1243 43.8433L64.876 44.7255C65.0744 44.9575 65.3123 45.135 65.5702 45.2613L65.6144 51.8661C65.5309 52.2114 65.5332 52.5725 65.6214 52.9169L65.7507 72.2299C63.9733 72.1637 62.148 72.1996 60.2837 72.3437C51.5027 73.0222 42.9468 76.1044 36.192 81.0223C29.0099 86.2511 24.0706 93.3487 21.8241 101.634C13.6836 101.706 7.48464 107.514 6.00765 116.481C5.90415 117.109 6.08193 117.75 6.49395 118.235C6.90569 118.72 7.50967 119 8.14593 119H131.088C132.285 119 133.255 118.03 133.255 116.833C133.255 110.377 127.482 103.5 116.43 102.335C114.555 97.9254 111.468 94.1093 107.629 91.4883C103.351 88.5669 98.2509 87.1567 92.8039 87.3701C89.0095 79.3845 80.645 74.0727 70.0868 72.6099L69.9566 53.2163C72.2813 50.9558 75.7029 47.8174 80.0023 44.4097C83.8262 46.0722 88.0035 46.9044 92.2503 46.9044C97.155 46.9044 102.152 45.7954 106.793 43.5809C110.299 41.9078 113.876 39.8368 118.05 37.0634C119.047 36.401 119.318 35.0562 118.656 34.0594C117.994 33.0623 116.648 32.7916 115.651 33.4534C111.652 36.1111 108.243 38.0864 104.926 39.6694C98.3227 42.8198 90.6559 43.372 84.0936 41.311C97.9204 31.3474 113.768 25.0069 131.346 22.3898C130.236 23.1554 129.17 23.9068 128.166 24.6215C127.191 25.3154 126.962 26.6683 127.657 27.6434C128.35 28.6182 129.703 28.8464 130.678 28.1525C133.811 25.9238 137.531 23.3404 141.373 21.0839C141.381 21.0794 141.388 21.0733 141.395 21.0689C141.473 21.0219 141.548 20.9715 141.619 20.9156C141.622 20.9136 141.624 20.9117 141.626 20.9097C141.692 20.8572 141.754 20.7996 141.813 20.7398C141.831 20.7214 141.849 20.7025 141.866 20.6836C141.914 20.6321 141.959 20.5784 142.001 20.5225C142.012 20.5083 142.024 20.4947 142.034 20.4802C142.085 20.4101 142.131 20.3366 142.172 20.261C142.182 20.244 142.19 20.2262 142.199 20.2089C142.232 20.145 142.262 20.0793 142.288 20.012C142.296 19.9936 142.303 19.9752 142.31 19.9566C142.371 19.7908 142.411 19.6161 142.429 19.4353C142.431 19.4124 142.433 19.3894 142.435 19.3663C142.439 19.2953 142.441 19.2235 142.438 19.1509C142.438 19.1359 142.44 19.1212 142.439 19.1059C142.441 19.0986 142.439 19.0922 142.439 19.0856ZM34.4201 29.9611C28.0476 25.9208 22.2014 20.5414 16.548 15.339C14.6106 13.5562 12.6423 11.7454 10.6339 9.96934C27.7076 14.6295 42.5242 22.6811 54.81 33.9901C48.0939 35.2954 40.5712 33.8613 34.4201 29.9611ZM57.8202 30.8714C44.9407 18.9907 29.41 10.5572 11.5161 5.71615C22.6293 3.80071 36.1712 4.26837 46.401 10.6732C53.16 14.905 58.6966 22.8369 57.8202 30.8714ZM89.404 90.4203C89.7562 91.3248 90.6687 91.8845 91.6304 91.7913C103.354 90.6674 110.396 98.2687 112.87 105.119C113.164 105.934 113.915 106.495 114.779 106.546C120.786 106.904 127.124 109.822 128.601 114.665H10.8924C12.3613 110.106 15.8391 105.967 21.9752 105.967C21.9836 105.967 21.993 105.967 22.0014 105.967C22.4187 105.967 22.8535 105.989 23.2936 106.033C24.3856 106.136 25.3846 105.414 25.6208 104.343C27.3843 96.3441 31.9219 89.4914 38.7434 84.5252C44.8578 80.0736 52.6264 77.2818 60.6181 76.6642C74.4371 75.5973 85.7353 80.9961 89.404 90.4203ZM81.2526 38.0202C81.1886 29.7049 87.7868 22.2565 95.1912 18.7745C106.307 13.5473 120.057 14.7481 131.028 18.0537C112.501 20.7606 95.8052 27.4553 81.2526 38.0202Z" fill="#1F3B2C"/>
</svg>
