<svg width="40" height="40" viewBox="0 0 70 70" fill="none" xmlns="http://www.w3.org/2000/svg">
<path d="M58.6287 20.9935C58.6285 20.9901 58.6287 20.9868 58.6284 20.9834C58.6264 20.9577 58.623 20.9325 58.6183 20.9078C58.6174 20.9029 58.616 20.8981 58.615 20.8933C58.6101 20.8698 58.6041 20.8469 58.5969 20.8244C58.5944 20.8166 58.5919 20.809 58.5892 20.8014C58.5815 20.7801 58.5729 20.7592 58.5633 20.739C58.5607 20.7335 58.5584 20.7277 58.5557 20.7223C58.5436 20.6986 58.5303 20.6759 58.5158 20.6539C58.5099 20.645 58.5035 20.6366 58.4972 20.6279C58.4877 20.6149 58.4779 20.6023 58.4675 20.59C58.4592 20.58 58.4508 20.5702 58.4419 20.5606C58.4317 20.5499 58.4209 20.5398 58.4102 20.5297C58.3934 20.514 58.3757 20.499 58.3573 20.4849C58.3477 20.4775 58.3381 20.4701 58.328 20.4632C58.3156 20.4547 58.3028 20.4467 58.2898 20.4389C58.2783 20.432 58.2664 20.4258 58.2544 20.4196C58.2447 20.4146 58.2357 20.4085 58.2257 20.4039C55.8794 19.3278 53.1907 18.6249 50.655 18.4248C47.7565 18.196 45.0759 18.6155 42.9029 19.6374C41.2418 20.4185 39.8026 21.6554 38.85 23.1201C37.8326 24.6849 37.4467 26.3821 37.7229 28.0517C36.8251 28.7651 36.0439 29.4423 35.3975 30.0322L35.3881 28.6267C35.3881 28.5798 35.4156 23.9075 37.7974 21.5258C38.0685 21.2546 38.0685 20.8152 37.7974 20.544C37.5263 20.273 37.0868 20.273 36.8156 20.544C34.8306 22.5291 34.2448 25.6829 34.072 27.4093C33.6758 26.9518 33.2251 26.4472 32.7089 25.9188C33.1511 24.3338 32.9674 22.6491 32.166 21.018C31.4044 19.4682 30.1383 18.0845 28.6008 17.122C26.5899 15.8629 24.01 15.135 21.1401 15.0169C18.6296 14.9138 15.9099 15.2854 13.4818 16.0638C13.4781 16.065 13.4748 16.0669 13.471 16.0681C13.4488 16.0757 13.4272 16.0843 13.4059 16.0941C13.3971 16.0981 13.3886 16.1022 13.3801 16.1064C13.3607 16.1163 13.3417 16.1271 13.3234 16.1387C13.3181 16.142 13.3125 16.1449 13.3073 16.1484C13.2851 16.1632 13.2642 16.1797 13.2438 16.197C13.2373 16.2026 13.231 16.2084 13.2247 16.2142C13.209 16.2286 13.194 16.2437 13.1796 16.2595C13.1751 16.2646 13.1702 16.2694 13.1658 16.2746C13.1475 16.2959 13.1304 16.3184 13.1148 16.342C13.1129 16.3449 13.1112 16.3481 13.1093 16.3512C13.0959 16.372 13.0837 16.3939 13.0726 16.4163C13.0694 16.4227 13.0663 16.4292 13.0633 16.4357C13.0532 16.4578 13.0441 16.4805 13.0363 16.5039C13.0348 16.5083 13.033 16.5126 13.0316 16.5169C13.024 16.541 13.0175 16.5657 13.0125 16.591C13.0119 16.5943 13.0117 16.5975 13.0111 16.6007C13.0106 16.6029 13.0098 16.605 13.0095 16.6072C13.0086 16.6122 13.0087 16.6172 13.008 16.6223C13.0046 16.6449 13.0023 16.6674 13.0011 16.6899C13.0007 16.6975 13.0003 16.705 13.0001 16.7125C12.999 16.7706 13.0052 16.8276 13.018 16.8827C13.0195 16.8888 13.0212 16.8949 13.0228 16.901C13.0288 16.9236 13.0358 16.9457 13.044 16.9674C13.0461 16.9731 13.048 16.9788 13.0502 16.9845C13.0606 17.0104 13.0725 17.0356 13.0859 17.0599C13.0884 17.0647 13.0916 17.0692 13.0943 17.0739C13.1058 17.0936 13.1183 17.1128 13.1317 17.1312C13.1364 17.1378 13.1411 17.1442 13.1461 17.1507C13.1629 17.1722 13.1804 17.1931 13.1997 17.2126C13.2002 17.2131 13.2005 17.2137 13.2011 17.2142C13.2215 17.2348 13.2436 17.2536 13.2665 17.2716C13.2688 17.2734 13.2707 17.2755 13.273 17.2773C14.6839 18.3518 16.0446 19.604 17.3608 20.8151C19.2169 22.5231 21.136 24.2892 23.2826 25.65C25.0181 26.7503 26.9972 27.3181 28.9403 27.3181C29.8906 27.3181 30.8321 27.1815 31.7322 26.9056C32.4475 27.6387 33.025 28.3173 33.5415 28.9244L33.7823 29.207C33.8459 29.2813 33.9221 29.3382 34.0047 29.3786L34.0189 31.4944C33.9921 31.605 33.9928 31.7207 34.0211 31.831L34.0625 38.0177C33.4931 37.9965 32.9084 38.008 32.3112 38.0542C29.4983 38.2715 26.7575 39.2589 24.5937 40.8343C22.293 42.5093 20.7108 44.7829 19.9911 47.437C17.3834 47.46 15.3976 49.3206 14.9245 52.193C14.8913 52.3942 14.9483 52.5997 15.0803 52.755C15.2122 52.9103 15.4056 53 15.6095 53H54.9926C55.376 53 55.6867 52.6892 55.6867 52.3058C55.6867 50.2376 53.8375 48.0349 50.297 47.6616C49.6965 46.249 48.7077 45.0265 47.4779 44.1869C46.1072 43.2511 44.4736 42.7993 42.7287 42.8677C41.5132 40.3096 38.8337 38.608 35.4515 38.1394L35.4098 31.9269C36.1545 31.2028 37.2506 30.1974 38.6279 29.1058C39.8528 29.6384 41.1909 29.905 42.5514 29.905C44.1225 29.905 45.7231 29.5497 47.2098 28.8403C48.333 28.3044 49.4789 27.641 50.816 26.7525C51.1353 26.5403 51.2222 26.1095 51.0101 25.7902C50.798 25.4708 50.367 25.3841 50.0477 25.5961C48.7664 26.4475 47.6746 27.0802 46.6119 27.5873C44.4966 28.5965 42.0406 28.7734 39.9385 28.1132C44.3677 24.9215 49.4443 22.8903 55.0754 22.052C54.7198 22.2972 54.3782 22.538 54.0565 22.7669C53.7441 22.9892 53.671 23.4226 53.8934 23.7349C54.1156 24.0472 54.5489 24.1203 54.8614 23.898C55.8648 23.1841 57.0566 22.3565 58.2873 21.6337C58.2898 21.6322 58.292 21.6303 58.2944 21.6288C58.3193 21.6138 58.3435 21.5976 58.3662 21.5797C58.3669 21.5791 58.3676 21.5785 58.3684 21.5779C58.3895 21.561 58.4093 21.5426 58.4282 21.5234C58.4341 21.5175 58.4397 21.5115 58.4453 21.5054C58.4606 21.4889 58.475 21.4717 58.4886 21.4538C58.4921 21.4493 58.4958 21.4449 58.4992 21.4403C58.5153 21.4178 58.53 21.3943 58.5434 21.37C58.5464 21.3646 58.549 21.3589 58.5518 21.3534C58.5625 21.3329 58.572 21.3118 58.5805 21.2903C58.5829 21.2844 58.5854 21.2785 58.5875 21.2725C58.6069 21.2194 58.6198 21.1635 58.6256 21.1055C58.6264 21.0982 58.6268 21.0908 58.6273 21.0834C58.6288 21.0607 58.6293 21.0377 58.6286 21.0144C58.6284 21.0096 58.6291 21.0049 58.6288 21C58.6293 20.9977 58.6288 20.9956 58.6287 20.9935ZM24.0261 24.4774C21.9847 23.1831 20.112 21.4599 18.301 19.7933C17.6803 19.2222 17.0498 18.6422 16.4065 18.0732C21.8758 19.5661 26.6222 22.1453 30.5578 25.768C28.4064 26.1862 25.9966 25.7267 24.0261 24.4774ZM31.5221 24.769C27.3963 20.9631 22.4212 18.2615 16.6891 16.7108C20.249 16.0972 24.587 16.247 27.8641 18.2987C30.0292 19.6543 31.8028 22.1952 31.5221 24.769ZM41.6396 43.8448C41.7524 44.1345 42.0447 44.3138 42.3528 44.284C46.1083 43.9239 48.364 46.359 49.1567 48.5535C49.2509 48.8143 49.4914 48.9941 49.7683 49.0106C51.6925 49.1252 53.7226 50.06 54.1959 51.6114H16.4892C16.9598 50.151 18.0739 48.8249 20.0395 48.8249C20.0422 48.8249 20.0452 48.8249 20.0479 48.8249C20.1816 48.8251 20.3209 48.8322 20.4619 48.846C20.8117 48.8792 21.1317 48.6477 21.2073 48.3046C21.7723 45.7424 23.2258 43.5472 25.411 41.9564C27.3697 40.5304 29.8583 39.636 32.4183 39.4382C36.8451 39.0964 40.4644 40.8259 41.6396 43.8448ZM39.0284 27.059C39.0079 24.3953 41.1215 22.0093 43.4934 20.8939C47.0541 19.2194 51.4589 19.604 54.9734 20.663C49.0383 21.5301 43.6901 23.6747 39.0284 27.059Z" fill="#1F3B2C"/>
<circle cx="35" cy="35" r="34" stroke="#1F3B2C" stroke-width="2"/>
</svg>
