<svg width="46" height="58" viewBox="0 0 40 52" fill="none" xmlns="http://www.w3.org/2000/svg">
<path d="M7.79832 48.95C6.76499 48.95 6.24832 49.3433 6.24832 50.13C6.24832 50.5233 6.37832 50.8233 6.63832 51.03C6.90499 51.2367 7.25499 51.34 7.68832 51.34C8.11499 51.34 8.46832 51.2467 8.74832 51.06C9.09499 50.8333 9.26832 50.5 9.26832 50.06C9.26832 49.6933 9.18165 49.4233 9.00832 49.25C8.80832 49.05 8.40499 48.95 7.79832 48.95ZM9.91832 44.22V44.6L8.81832 44.51C9.03832 44.6767 9.20832 44.87 9.32832 45.09C9.44832 45.31 9.50832 45.5567 9.50832 45.83C9.50832 46.3433 9.29832 46.7367 8.87832 47.01C8.49832 47.2567 7.99832 47.38 7.37832 47.38C7.31832 47.3733 7.26499 47.37 7.21832 47.37C7.06499 47.37 6.94499 47.3967 6.85832 47.45C6.72499 47.53 6.65832 47.6667 6.65832 47.86C6.65832 48.06 6.73165 48.19 6.87832 48.25C7.02499 48.31 7.27165 48.34 7.61832 48.34H8.25832C8.84499 48.34 9.27832 48.4533 9.55832 48.68C9.84499 48.9 9.98832 49.23 9.98832 49.67C9.98832 50.2567 9.75499 50.73 9.28832 51.09C8.82832 51.4567 8.21499 51.64 7.44832 51.64C6.98165 51.64 6.57832 51.5267 6.23832 51.3C5.83832 51.0333 5.63832 50.6567 5.63832 50.17C5.63832 49.8233 5.72832 49.55 5.90832 49.35C6.09499 49.15 6.35165 49.02 6.67832 48.96V48.88C6.43832 48.84 6.27499 48.7533 6.18832 48.62C6.10832 48.48 6.06832 48.2967 6.06832 48.07C6.06832 47.8567 6.13499 47.6767 6.26832 47.53C6.37499 47.41 6.53832 47.3033 6.75832 47.21C6.43832 47.0633 6.20165 46.8833 6.04832 46.67C5.87499 46.43 5.78832 46.1333 5.78832 45.78C5.78832 45.2733 5.94165 44.8867 6.24832 44.62C6.58165 44.3333 7.10165 44.19 7.80832 44.19L9.19832 44.24C9.26499 44.2467 9.32165 44.2533 9.36832 44.26C9.42165 44.26 9.46499 44.26 9.49832 44.26C9.56499 44.26 9.63832 44.2567 9.71832 44.25C9.80499 44.2367 9.87165 44.2267 9.91832 44.22ZM6.54832 45.77C6.54832 46.15 6.64165 46.4733 6.82832 46.74C7.01499 47 7.28499 47.13 7.63832 47.13C7.98499 47.13 8.26165 46.9967 8.46832 46.73C8.65499 46.49 8.74832 46.1867 8.74832 45.82C8.74832 45.3933 8.67165 45.07 8.51832 44.85C8.33832 44.59 8.05832 44.46 7.67832 44.46C7.33165 44.46 7.05499 44.5833 6.84832 44.83C6.64832 45.07 6.54832 45.3833 6.54832 45.77ZM11.0683 49.03V44.25L11.4683 44.28L11.8683 44.25V45.25L11.9183 45.13C12.0983 44.8433 12.285 44.6233 12.4783 44.47C12.7117 44.2833 12.945 44.19 13.1783 44.19C13.3117 44.19 13.415 44.2067 13.4883 44.24L13.3483 45.08C13.315 45.0733 13.245 45.0467 13.1383 45C13.0317 44.9467 12.945 44.92 12.8783 44.92C12.765 44.92 12.6483 44.9433 12.5283 44.99C12.4083 45.03 12.3117 45.09 12.2383 45.17C12.085 45.35 11.985 45.5333 11.9383 45.72C11.8917 45.9067 11.8683 46.1467 11.8683 46.44V49.03L11.4683 49L11.0683 49.03ZM13.9584 46.6C13.9584 45.8933 14.1984 45.3167 14.6784 44.87C15.1651 44.4167 15.7717 44.19 16.4984 44.19C17.1851 44.19 17.7417 44.4133 18.1684 44.86C18.6017 45.3 18.8184 45.89 18.8184 46.63C18.8184 47.31 18.6084 47.8833 18.1884 48.35C17.7284 48.8567 17.1051 49.11 16.3184 49.11C15.6317 49.11 15.0651 48.8833 14.6184 48.43C14.1784 47.97 13.9584 47.36 13.9584 46.6ZM16.4884 44.5C15.9017 44.5 15.4684 44.74 15.1884 45.22C14.9551 45.6133 14.8384 46.1233 14.8384 46.75C14.8384 47.3167 14.9551 47.7833 15.1884 48.15C15.4617 48.5833 15.8651 48.8 16.3984 48.8C16.9251 48.8 17.3284 48.53 17.6084 47.99C17.8284 47.57 17.9384 47.1 17.9384 46.58C17.9384 46.0333 17.8384 45.5767 17.6384 45.21C17.3784 44.7367 16.9951 44.5 16.4884 44.5ZM22.535 46.41L23.335 44.25L23.655 44.28L23.975 44.25C23.8617 44.4833 23.645 44.9567 23.325 45.67C23.0317 46.3233 22.7817 46.8967 22.575 47.39C22.2817 48.09 22.0684 48.6367 21.935 49.03L21.635 49L21.325 49.03C21.1117 48.4567 20.8217 47.7167 20.455 46.81C20.0484 45.8033 19.685 44.95 19.365 44.25L19.815 44.28L20.255 44.25C20.5617 45.2633 21.0584 46.5467 21.745 48.1C21.7917 48.0333 21.825 47.9867 21.845 47.96C21.8917 47.9 21.9217 47.8533 21.935 47.82L22.535 46.41ZM28.595 48L28.585 48.52C28.325 48.7067 28.0517 48.8533 27.765 48.96C27.4784 49.06 27.1784 49.11 26.865 49.11C26.1584 49.11 25.5884 48.89 25.155 48.45C24.7217 48.01 24.505 47.41 24.505 46.65C24.505 45.9233 24.6984 45.34 25.085 44.9C25.4984 44.4267 26.0684 44.19 26.795 44.19C27.3884 44.19 27.865 44.3867 28.225 44.78C28.625 45.2133 28.825 45.8333 28.825 46.64L26.795 46.61H25.385C25.385 47.21 25.5217 47.6967 25.795 48.07C26.1017 48.4833 26.5417 48.69 27.115 48.69C27.4217 48.69 27.7184 48.61 28.005 48.45C28.1984 48.3433 28.395 48.1933 28.595 48ZM25.385 46.24H28.045C28.045 45.7267 27.9617 45.3267 27.795 45.04C27.5884 44.68 27.255 44.5 26.795 44.5C26.3484 44.5 25.995 44.6833 25.735 45.05C25.5017 45.3767 25.385 45.7733 25.385 46.24ZM34.035 41.52V49.03L33.635 49L33.235 49.03V48.07C32.8284 48.7633 32.255 49.11 31.515 49.11C30.9217 49.11 30.4484 48.9133 30.095 48.52C29.7084 48.0933 29.515 47.4833 29.515 46.69C29.515 45.9833 29.7117 45.39 30.105 44.91C30.4984 44.43 31.0184 44.19 31.665 44.19C31.9984 44.19 32.2984 44.2767 32.565 44.45C32.8317 44.6167 33.055 44.8533 33.235 45.16V41.52L33.635 41.55L34.035 41.52ZM33.235 46.51C33.235 46.01 33.1384 45.5867 32.945 45.24C32.705 44.8133 32.3517 44.6 31.885 44.6C31.3117 44.6 30.905 44.8433 30.665 45.33C30.485 45.69 30.395 46.19 30.395 46.83C30.395 47.3367 30.4917 47.7633 30.685 48.11C30.925 48.5367 31.285 48.75 31.765 48.75C32.285 48.75 32.675 48.4933 32.935 47.98C33.135 47.58 33.235 47.09 33.235 46.51Z" fill="white"/>
<path d="M39.9997 6.30895C39.9995 6.30539 39.9997 6.30192 39.9995 6.29835C39.9977 6.27124 39.9947 6.24479 39.9906 6.21871C39.9898 6.21355 39.9886 6.20857 39.9877 6.20351C39.9834 6.17874 39.9781 6.15463 39.9719 6.1309C39.9697 6.12274 39.9674 6.11476 39.9651 6.1067C39.9584 6.08428 39.9508 6.06232 39.9423 6.04103C39.9401 6.03521 39.9381 6.02921 39.9357 6.02349C39.9252 5.99853 39.9134 5.97461 39.9007 5.95144C39.8956 5.94206 39.8899 5.93324 39.8845 5.92414C39.8761 5.91045 39.8675 5.89712 39.8584 5.88418C39.8511 5.87367 39.8438 5.86335 39.8359 5.85331C39.827 5.84196 39.8176 5.83136 39.8082 5.82076C39.7934 5.80416 39.778 5.7884 39.7618 5.77358C39.7534 5.76579 39.7449 5.758 39.7361 5.75078C39.7252 5.74177 39.7141 5.73333 39.7027 5.72517C39.6925 5.71795 39.6821 5.71138 39.6716 5.70481C39.663 5.69956 39.6552 5.69318 39.6464 5.6883C37.5896 4.55554 35.2325 3.81566 33.0097 3.60506C30.4688 3.36425 28.1188 3.80581 26.2139 4.88144C24.7578 5.70369 23.4961 7.00568 22.661 8.54745C21.7691 10.1947 21.4308 11.9812 21.673 13.7386C20.886 14.4896 20.2011 15.2025 19.6345 15.8234L19.6262 14.3439C19.6262 14.2946 19.6503 9.37636 21.7383 6.86928C21.976 6.58382 21.976 6.12124 21.7383 5.83577C21.5006 5.5505 21.1153 5.5505 20.8776 5.83577C19.1374 7.9254 18.6239 11.2452 18.4724 13.0625C18.1252 12.5808 17.73 12.0497 17.2775 11.4935C17.6652 9.82506 17.5041 8.05167 16.8016 6.33475C16.134 4.70339 15.024 3.24689 13.6762 2.23364C11.9134 0.90829 9.65174 0.142141 7.13586 0.0177488C4.93506 -0.090696 2.5509 0.300399 0.422373 1.11983C0.419092 1.12105 0.416201 1.12302 0.41292 1.12434C0.393467 1.13231 0.374482 1.14141 0.35581 1.15163C0.348154 1.15586 0.340654 1.16017 0.333232 1.16467C0.3162 1.17509 0.29956 1.18644 0.283466 1.19863C0.278856 1.2021 0.273934 1.2052 0.269403 1.20886C0.24995 1.22443 0.23159 1.24179 0.2137 1.25999C0.207996 1.2659 0.202528 1.27199 0.196981 1.27809C0.183231 1.29329 0.170027 1.30914 0.157449 1.32584C0.153465 1.33119 0.149246 1.33625 0.14534 1.34169C0.129324 1.36411 0.114324 1.38775 0.100652 1.41261C0.0989332 1.41571 0.0974488 1.41909 0.0958082 1.42228C0.0840893 1.44423 0.0733861 1.46721 0.0636204 1.49085C0.0608079 1.49761 0.0581517 1.50445 0.0554954 1.5113C0.0466672 1.53447 0.0386984 1.5584 0.0318233 1.58307C0.0304952 1.58766 0.0289327 1.59217 0.0276827 1.59676C0.021042 1.62209 0.0153388 1.64808 0.0109638 1.67472C0.0104169 1.67819 0.0102607 1.68157 0.0097138 1.68495C0.00932318 1.68729 0.00862005 1.68945 0.00830754 1.69179C0.00752629 1.69705 0.00760441 1.7023 0.00697941 1.70765C0.00401064 1.73148 0.00197937 1.75521 0.00096374 1.77885C0.000651238 1.78682 0.00026061 1.7947 0.000104359 1.80258C-0.000833148 1.86375 0.00455752 1.92379 0.0158076 1.98176C0.0170576 1.98823 0.0186201 1.99461 0.0200264 2.00109C0.0252608 2.02482 0.0313546 2.04809 0.0385421 2.07098C0.0404172 2.07698 0.0420578 2.08298 0.0440109 2.08899C0.0531516 2.11619 0.0635423 2.14274 0.0752612 2.16835C0.0775268 2.17342 0.0802612 2.17811 0.0826831 2.18308C0.0927613 2.20381 0.103699 2.22398 0.115418 2.2434C0.119558 2.25034 0.123699 2.2571 0.128074 2.26385C0.142762 2.28655 0.158152 2.3085 0.175027 2.32905C0.175496 2.32961 0.175809 2.33017 0.176278 2.33074C0.194168 2.35241 0.213543 2.3722 0.233622 2.39115C0.235653 2.39303 0.237294 2.39528 0.239325 2.39715C1.47613 3.52823 2.66903 4.84635 3.82279 6.12114C5.44991 7.91902 7.13234 9.77806 9.01408 11.2105C10.5355 12.3687 12.2704 12.9664 13.9738 12.9664C14.8069 12.9664 15.6322 12.8226 16.4213 12.5322C17.0484 13.3039 17.5546 14.0182 18.0074 14.6572L18.2185 14.9547C18.2742 15.0329 18.341 15.0928 18.4134 15.1354L18.4259 17.3625C18.4024 17.4789 18.403 17.6007 18.4278 17.7169L18.4641 24.2292C17.965 24.2068 17.4524 24.2189 16.9289 24.2675C14.463 24.4963 12.0603 25.5357 10.1635 27.1939C8.14657 28.9571 6.75953 31.3504 6.12866 34.1442C3.84263 34.1685 2.10184 36.1269 1.68707 39.1505C1.65801 39.3623 1.70793 39.5786 1.82363 39.7421C1.93926 39.9056 2.10887 40 2.28754 40H36.8122C37.1483 40 37.4207 39.6729 37.4207 39.2693C37.4207 37.0923 35.7996 34.7735 32.6959 34.3807C32.1694 32.8937 31.3026 31.6069 30.2245 30.7231C29.023 29.738 27.5909 29.2625 26.0612 29.3344C24.9957 26.6417 22.6468 24.8506 19.6818 24.3573L19.6452 17.8178C20.2981 17.0556 21.2589 15.9973 22.4663 14.8482C23.5401 15.4088 24.7132 15.6894 25.9058 15.6894C27.2831 15.6894 28.6863 15.3155 29.9895 14.5688C30.9742 14.0046 31.9787 13.3063 33.1508 12.3711C33.4307 12.1477 33.5069 11.6942 33.321 11.3581C33.135 11.0219 32.7572 10.9306 32.4773 11.1538C31.3541 12.05 30.397 12.716 29.4654 13.2498C27.611 14.3121 25.458 14.4983 23.6152 13.8034C27.498 10.4436 31.9484 8.30561 36.8847 7.42314C36.573 7.6813 36.2736 7.93469 35.9915 8.17568C35.7177 8.40965 35.6536 8.86585 35.8486 9.19465C36.0433 9.52336 36.4233 9.60029 36.6972 9.36632C37.5768 8.61481 38.6216 7.74369 39.7005 6.98279C39.7027 6.98129 39.7045 6.97923 39.7066 6.97773C39.7285 6.96187 39.7497 6.94489 39.7696 6.92604C39.7702 6.92538 39.7709 6.92472 39.7715 6.92407C39.79 6.90634 39.8073 6.88692 39.824 6.86675C39.8291 6.86056 39.8341 6.85418 39.839 6.8478C39.8523 6.83044 39.865 6.81234 39.8769 6.79348C39.8799 6.7887 39.8832 6.7841 39.8862 6.77922C39.9003 6.75558 39.9132 6.73082 39.9249 6.7053C39.9276 6.69958 39.9298 6.69357 39.9323 6.68776C39.9416 6.66618 39.95 6.64404 39.9575 6.62134C39.9595 6.61515 39.9617 6.60896 39.9636 6.60267C39.9806 6.54676 39.9919 6.48785 39.997 6.42687C39.9977 6.41918 39.998 6.41139 39.9985 6.40361C39.9998 6.37968 40.0002 6.35548 39.9996 6.331C39.9995 6.32593 40.0001 6.32096 39.9998 6.3158C40.0002 6.31336 39.9998 6.3112 39.9997 6.30895ZM9.66588 9.97619C7.87633 8.61378 6.2346 6.79986 4.64701 5.04561C4.10295 4.44447 3.55021 3.83386 2.98622 3.23497C7.78086 4.80639 11.9417 7.52136 15.3918 11.3347C13.5057 11.7749 11.3932 11.2913 9.66588 9.97619ZM16.2371 10.2831C12.6203 6.27696 8.25891 3.4332 3.23396 1.8008C6.35476 1.15492 10.1576 1.31261 13.0304 3.47231C14.9284 4.89926 16.4832 7.57389 16.2371 10.2831ZM25.1065 30.363C25.2054 30.6679 25.4616 30.8567 25.7317 30.8253C29.0239 30.4463 31.0013 33.0094 31.6962 35.3194C31.7788 35.594 31.9896 35.7832 32.2324 35.8006C33.9192 35.9212 35.6989 36.9053 36.1137 38.5383H3.0588C3.4713 37.0011 4.44795 35.6052 6.17109 35.6052C6.17343 35.6052 6.17609 35.6052 6.17843 35.6052C6.29562 35.6054 6.41773 35.6129 6.54132 35.6274C6.84797 35.6623 7.12852 35.4187 7.19484 35.0575C7.69008 32.3605 8.96431 30.0497 10.8799 28.3751C12.597 26.8741 14.7786 25.9327 17.0228 25.7244C20.9035 25.3646 24.0762 27.1851 25.1065 30.363ZM22.8174 12.6937C22.7994 9.88979 24.6523 7.3782 26.7316 6.20407C29.8531 4.44147 33.7144 4.84635 36.7954 5.96101C31.5924 6.87378 26.904 9.13124 22.8174 12.6937Z" fill="white"/>
</svg>
