<svg width="30" height="30" viewBox="0 0 48 46" fill="none" xmlns="http://www.w3.org/2000/svg">
<path d="M17.75 44.8333C18.9006 44.8333 19.8333 43.9006 19.8333 42.75C19.8333 41.5994 18.9006 40.6667 17.75 40.6667C16.5994 40.6667 15.6667 41.5994 15.6667 42.75C15.6667 43.9006 16.5994 44.8333 17.75 44.8333Z" stroke="#1F3B2C" stroke-width="2" stroke-linecap="round" stroke-linejoin="round"/>
<path d="M40.6667 44.8333C41.8173 44.8333 42.75 43.9006 42.75 42.75C42.75 41.5994 41.8173 40.6667 40.6667 40.6667C39.5161 40.6667 38.5833 41.5994 38.5833 42.75C38.5833 43.9006 39.5161 44.8333 40.6667 44.8333Z" stroke="#1F3B2C" stroke-width="2" stroke-linecap="round" stroke-linejoin="round"/>
<path d="M1.08333 1.08333H9.41666L15 28.9792C15.1905 29.9383 15.7123 30.7999 16.474 31.4131C17.2358 32.0263 18.1889 32.3521 19.1667 32.3333H39.4167C40.3944 32.3521 41.3475 32.0263 42.1093 31.4131C42.871 30.7999 43.3928 29.9383 43.5833 28.9792L46.9167 11.5H11.5" stroke="#1F3B2C" stroke-width="2" stroke-linecap="round" stroke-linejoin="round"/>
</svg>
