<svg width="22" height="24" viewBox="0 0 22 24" fill="none" xmlns="http://www.w3.org/2000/svg">
<path d="M16.313 4V2.144C16.313 0.96 15.353 0 14.169 0H7.831C7.54579 6.44839e-05 7.26347 0.0570854 7.0006 0.167718C6.73772 0.27835 6.49959 0.440365 6.30017 0.64426C6.10074 0.848154 5.94405 1.08982 5.83927 1.35508C5.73449 1.62035 5.68374 1.90386 5.69 2.189V2.187V4H0V6H0.575C0.771 6.023 0.947 6.099 1.09 6.214L1.088 6.212C1.207 6.369 1.291 6.558 1.327 6.764L1.328 6.772L2.515 21.878C2.609 23.718 2.609 23.996 4.765 23.996H17.227C19.387 23.996 19.387 23.721 19.477 21.883L20.664 6.783C20.7 6.566 20.784 6.374 20.906 6.211L20.904 6.214C21.05 6.09692 21.2261 6.02344 21.412 6.002H21.992V4.002H16.305L16.313 4ZM7 2.187C7 1.587 7.487 1.249 8.106 1.249H13.84C14.458 1.249 15.002 1.593 15.002 2.187V4H7.002L7 2.187ZM6.469 20L5.829 8H7.098L7.754 20H6.469ZM11.694 20H10.32V8H11.695L11.694 20ZM15.544 20H14.269L14.925 8H16.194L15.544 20Z" fill="#E44646"/>
</svg>
