<svg width="22" height="22" viewBox="0 0 22 22" fill="none" xmlns="http://www.w3.org/2000/svg">
<path d="M11.3919 2.58333C11.3435 2.5268 11.2834 2.48142 11.2158 2.4503C11.1482 2.41919 11.0746 2.40308 11.0002 2.40308C10.9258 2.40308 10.8522 2.41919 10.7846 2.4503C10.717 2.48142 10.657 2.5268 10.6086 2.58333C9.24816 4.17447 4.8125 9.67532 4.8125 13.7501C4.8125 17.5472 7.20328 19.9375 11 19.9375C14.7967 19.9375 17.1875 17.5472 17.1875 13.7501C17.1875 9.67532 12.7518 4.17447 11.3919 2.58333V2.58333ZM11.6875 17.7032C11.6049 17.7034 11.5235 17.6837 11.4501 17.6459C11.3767 17.608 11.3134 17.5531 11.2657 17.4857C11.2179 17.4183 11.1871 17.3405 11.1757 17.2587C11.1643 17.1769 11.1727 17.0935 11.2002 17.0157C11.2354 16.9141 11.3017 16.8262 11.3897 16.7644C11.4778 16.7027 11.583 16.6704 11.6905 16.6719C12.373 16.6704 13.0272 16.3987 13.5098 15.9161C13.9924 15.4335 14.2641 14.7793 14.2656 14.0968C14.2641 13.9893 14.2964 13.8841 14.3581 13.796C14.4199 13.708 14.5078 13.6417 14.6094 13.6065C14.6872 13.579 14.7706 13.5706 14.8524 13.582C14.9342 13.5934 15.012 13.6242 15.0794 13.672C15.1468 13.7197 15.2017 13.783 15.2396 13.8564C15.2774 13.9298 15.2971 14.0112 15.2969 14.0938C15.2959 15.0508 14.9153 15.9682 14.2386 16.6449C13.5619 17.3216 12.6445 17.7022 11.6875 17.7032Z" fill="#373634"/>
</svg>
